<svg xmlns="http://www.w3.org/2000/svg" width="32" height="32" viewBox="0 0 32 32">
    <g fill="none" fill-rule="evenodd">
        <g fill="#333">
            <g>
                <path d="M21.997 18.416C27.632 18.416 32 25.33 32 31.273h-1.398c0-5.189-3.838-11.457-8.605-11.457H10.003c-4.767 0-8.605 6.268-8.605 11.457H0c0-5.944 4.37-12.857 10.003-12.857h11.994zM16 0c4.491 0 8.145 3.655 8.145 8.146 0 4.49-3.654 8.144-8.145 8.144-4.49 0-8.145-3.653-8.145-8.144S11.509 0 16 0zm0 1.398c-3.72 0-6.746 3.027-6.746 6.748 0 3.72 3.025 6.746 6.746 6.746 3.721 0 6.746-3.027 6.746-6.746 0-3.721-3.025-6.748-6.746-6.748z" transform="translate(-376 -1060) translate(376 1060)"/>
            </g>
        </g>
    </g>
</svg>
