<svg xmlns="http://www.w3.org/2000/svg" width="32" height="32" viewBox="0 0 32 32">
    <g fill="none" fill-rule="evenodd">
        <g fill="#333">
            <g>
                <path d="M24.354 12.944c0 5.686-4.647 10.313-10.358 10.313-5.713 0-10.358-4.627-10.358-10.313 0-5.687 4.645-10.313 10.358-10.313 5.711 0 10.358 4.626 10.358 10.313zm-2.32 8.84c2.517-2.27 3.957-5.482 3.957-8.84C25.99 6.358 20.61 1 13.996 1 7.382 1 2 6.358 2 12.944c0 6.585 5.382 11.943 11.996 11.943 2.417 0 4.747-.72 6.748-2.083l8.098 8.063L30 29.714l-7.965-7.93z" transform="translate(-184 -996) translate(184 996)"/>
            </g>
        </g>
    </g>
</svg>
